<mxfile host="app.diagrams.net" agent="Mozilla/5.0 (X11; Linux x86_64; rv:141.0) Gecko/20100101 Firefox/141.0" version="28.0.7">
  <diagram name="Page-1" id="OuiBJUTMiWkTsSL8u1MY">
    <mxGraphModel dx="703" dy="607" grid="1" gridSize="10" guides="1" tooltips="1" connect="1" arrows="1" fold="1" page="1" pageScale="1" pageWidth="850" pageHeight="1100" math="0" shadow="0">
      <root>
        <mxCell id="0" />
        <mxCell id="1" parent="0" />
        <mxCell id="ZVDFZyuQ5c420S0wrFD2-2" value="" style="rounded=0;whiteSpace=wrap;html=1;" vertex="1" parent="1">
          <mxGeometry x="110" y="280" width="330" height="200" as="geometry" />
        </mxCell>
        <mxCell id="ZVDFZyuQ5c420S0wrFD2-3" value="QEmu" style="text;strokeColor=none;align=center;fillColor=none;html=1;verticalAlign=middle;whiteSpace=wrap;rounded=0;" vertex="1" parent="1">
          <mxGeometry x="245" y="250" width="60" height="30" as="geometry" />
        </mxCell>
        <mxCell id="ZVDFZyuQ5c420S0wrFD2-14" value="" style="rounded=0;whiteSpace=wrap;html=1;dashed=1;dashPattern=8 8;" vertex="1" parent="1">
          <mxGeometry x="120" y="285" width="310" height="135" as="geometry" />
        </mxCell>
        <mxCell id="ZVDFZyuQ5c420S0wrFD2-4" value="x86 CPU" style="rounded=0;whiteSpace=wrap;html=1;fillColor=#1ba1e2;fontColor=#ffffff;strokeColor=#006EAF;" vertex="1" parent="1">
          <mxGeometry x="130" y="290" width="120" height="50" as="geometry" />
        </mxCell>
        <mxCell id="ZVDFZyuQ5c420S0wrFD2-5" value="BIOS" style="rounded=0;whiteSpace=wrap;html=1;fillColor=#6d8764;fontColor=#ffffff;strokeColor=#3A5431;" vertex="1" parent="1">
          <mxGeometry x="470" y="290" width="120" height="50" as="geometry" />
        </mxCell>
        <mxCell id="ZVDFZyuQ5c420S0wrFD2-6" value="Memory" style="rounded=0;whiteSpace=wrap;html=1;fillColor=#1ba1e2;fontColor=#ffffff;strokeColor=#006EAF;" vertex="1" parent="1">
          <mxGeometry x="300" y="290" width="120" height="50" as="geometry" />
        </mxCell>
        <mxCell id="ZVDFZyuQ5c420S0wrFD2-7" value="Floppy Disk Controller" style="rounded=0;whiteSpace=wrap;html=1;fillColor=#1ba1e2;fontColor=#ffffff;strokeColor=#006EAF;" vertex="1" parent="1">
          <mxGeometry x="300" y="360" width="120" height="50" as="geometry" />
        </mxCell>
        <mxCell id="ZVDFZyuQ5c420S0wrFD2-8" value="Floppy Disk Image" style="shape=cylinder3;whiteSpace=wrap;html=1;boundedLbl=1;backgroundOutline=1;size=15;fontSize=10;fillColor=#6d8764;fontColor=#ffffff;strokeColor=#3A5431;" vertex="1" parent="1">
          <mxGeometry x="470" y="345" width="60" height="80" as="geometry" />
        </mxCell>
        <mxCell id="ZVDFZyuQ5c420S0wrFD2-9" value="Video Controller" style="rounded=0;whiteSpace=wrap;html=1;fillColor=#1ba1e2;fontColor=#ffffff;strokeColor=#006EAF;" vertex="1" parent="1">
          <mxGeometry x="130" y="360" width="120" height="50" as="geometry" />
        </mxCell>
        <mxCell id="ZVDFZyuQ5c420S0wrFD2-10" value="GDB Server" style="rounded=0;whiteSpace=wrap;html=1;fillColor=#60a917;fontColor=#ffffff;strokeColor=#2D7600;" vertex="1" parent="1">
          <mxGeometry x="130" y="430" width="290" height="40" as="geometry" />
        </mxCell>
        <mxCell id="ZVDFZyuQ5c420S0wrFD2-11" value="" style="endArrow=classic;startArrow=classic;html=1;rounded=0;exitX=1;exitY=0.5;exitDx=0;exitDy=0;entryX=0;entryY=0.5;entryDx=0;entryDy=0;" edge="1" parent="1" source="ZVDFZyuQ5c420S0wrFD2-4" target="ZVDFZyuQ5c420S0wrFD2-6">
          <mxGeometry width="50" height="50" relative="1" as="geometry">
            <mxPoint x="250" y="400" as="sourcePoint" />
            <mxPoint x="300" y="350" as="targetPoint" />
          </mxGeometry>
        </mxCell>
        <mxCell id="ZVDFZyuQ5c420S0wrFD2-12" value="" style="endArrow=classic;startArrow=classic;html=1;rounded=0;exitX=1;exitY=0.5;exitDx=0;exitDy=0;entryX=0;entryY=0.5;entryDx=0;entryDy=0;" edge="1" parent="1" source="ZVDFZyuQ5c420S0wrFD2-4" target="ZVDFZyuQ5c420S0wrFD2-7">
          <mxGeometry width="50" height="50" relative="1" as="geometry">
            <mxPoint x="250" y="400" as="sourcePoint" />
            <mxPoint x="300" y="350" as="targetPoint" />
            <Array as="points">
              <mxPoint x="280" y="315" />
              <mxPoint x="280" y="385" />
            </Array>
          </mxGeometry>
        </mxCell>
        <mxCell id="ZVDFZyuQ5c420S0wrFD2-13" value="" style="endArrow=classic;startArrow=classic;html=1;rounded=0;exitX=1;exitY=0.5;exitDx=0;exitDy=0;entryX=1;entryY=0.5;entryDx=0;entryDy=0;" edge="1" parent="1" source="ZVDFZyuQ5c420S0wrFD2-4" target="ZVDFZyuQ5c420S0wrFD2-9">
          <mxGeometry width="50" height="50" relative="1" as="geometry">
            <mxPoint x="255" y="310" as="sourcePoint" />
            <mxPoint x="305" y="380" as="targetPoint" />
            <Array as="points">
              <mxPoint x="280" y="315" />
              <mxPoint x="280" y="385" />
            </Array>
          </mxGeometry>
        </mxCell>
        <mxCell id="ZVDFZyuQ5c420S0wrFD2-21" value="" style="endArrow=classic;startArrow=classic;html=1;rounded=0;entryX=1;entryY=0.5;entryDx=0;entryDy=0;exitX=0;exitY=0.5;exitDx=0;exitDy=0;" edge="1" parent="1" source="ZVDFZyuQ5c420S0wrFD2-5" target="ZVDFZyuQ5c420S0wrFD2-6">
          <mxGeometry width="50" height="50" relative="1" as="geometry">
            <mxPoint x="250" y="400" as="sourcePoint" />
            <mxPoint x="300" y="350" as="targetPoint" />
          </mxGeometry>
        </mxCell>
        <mxCell id="ZVDFZyuQ5c420S0wrFD2-22" value="" style="endArrow=classic;startArrow=classic;html=1;rounded=0;entryX=0;entryY=0.5;entryDx=0;entryDy=0;entryPerimeter=0;exitX=1;exitY=0.5;exitDx=0;exitDy=0;" edge="1" parent="1" source="ZVDFZyuQ5c420S0wrFD2-7" target="ZVDFZyuQ5c420S0wrFD2-8">
          <mxGeometry width="50" height="50" relative="1" as="geometry">
            <mxPoint x="250" y="400" as="sourcePoint" />
            <mxPoint x="300" y="350" as="targetPoint" />
          </mxGeometry>
        </mxCell>
        <mxCell id="ZVDFZyuQ5c420S0wrFD2-23" value="GDB" style="rounded=0;whiteSpace=wrap;html=1;fillColor=#f0a30a;fontColor=#000000;strokeColor=#BD7000;" vertex="1" parent="1">
          <mxGeometry x="110" y="540" width="330" height="60" as="geometry" />
        </mxCell>
        <mxCell id="ZVDFZyuQ5c420S0wrFD2-24" value="Eclipse" style="rounded=0;whiteSpace=wrap;html=1;fillColor=#f0a30a;fontColor=#000000;strokeColor=#BD7000;" vertex="1" parent="1">
          <mxGeometry x="110" y="650" width="330" height="60" as="geometry" />
        </mxCell>
        <mxCell id="ZVDFZyuQ5c420S0wrFD2-25" value="" style="endArrow=classic;startArrow=classic;html=1;rounded=0;entryX=0.5;entryY=1;entryDx=0;entryDy=0;exitX=0.5;exitY=0;exitDx=0;exitDy=0;" edge="1" parent="1" source="ZVDFZyuQ5c420S0wrFD2-23" target="ZVDFZyuQ5c420S0wrFD2-10">
          <mxGeometry width="50" height="50" relative="1" as="geometry">
            <mxPoint x="320" y="490" as="sourcePoint" />
            <mxPoint x="370" y="440" as="targetPoint" />
          </mxGeometry>
        </mxCell>
        <mxCell id="ZVDFZyuQ5c420S0wrFD2-26" value="GDB Remote Protocol" style="text;strokeColor=none;align=center;fillColor=none;html=1;verticalAlign=middle;whiteSpace=wrap;rounded=0;" vertex="1" parent="1">
          <mxGeometry x="270" y="490" width="100" height="30" as="geometry" />
        </mxCell>
        <mxCell id="ZVDFZyuQ5c420S0wrFD2-27" value="" style="endArrow=classic;startArrow=classic;html=1;rounded=0;entryX=0.5;entryY=1;entryDx=0;entryDy=0;exitX=0.5;exitY=0;exitDx=0;exitDy=0;" edge="1" parent="1" source="ZVDFZyuQ5c420S0wrFD2-24" target="ZVDFZyuQ5c420S0wrFD2-23">
          <mxGeometry width="50" height="50" relative="1" as="geometry">
            <mxPoint x="320" y="540" as="sourcePoint" />
            <mxPoint x="370" y="490" as="targetPoint" />
          </mxGeometry>
        </mxCell>
        <mxCell id="ZVDFZyuQ5c420S0wrFD2-28" value="GDB MI/MI2 Protocol" style="text;strokeColor=none;align=center;fillColor=none;html=1;verticalAlign=middle;whiteSpace=wrap;rounded=0;" vertex="1" parent="1">
          <mxGeometry x="270" y="610" width="100" height="30" as="geometry" />
        </mxCell>
      </root>
    </mxGraphModel>
  </diagram>
</mxfile>
